<?xml version="1.0" encoding="UTF-8" standalone="no"?>
<svg
   xmlns:dc="http://purl.org/dc/elements/1.1/"
   xmlns:cc="http://creativecommons.org/ns#"
   xmlns:rdf="http://www.w3.org/1999/02/22-rdf-syntax-ns#"
   xmlns:svg="http://www.w3.org/2000/svg"
   xmlns="http://www.w3.org/2000/svg"
   xmlns:sodipodi="http://sodipodi.sourceforge.net/DTD/sodipodi-0.dtd"
   xmlns:inkscape="http://www.inkscape.org/namespaces/inkscape"
   viewBox="0 0 421.48184 487.38189"
   id="svg3085"
   version="1.1"
   inkscape:version="0.48.5 r10040"
   width="100%"
   height="100%"
   sodipodi:docname="cube.svg"
   inkscape:export-filename="/home/bleathem/workspace/visualCubeGenerator/client/src/img/cube.png"
   inkscape:export-xdpi="55.398033"
   inkscape:export-ydpi="55.398033">
  <metadata
     id="metadata3145">
    <rdf:RDF>
      <cc:Work
         rdf:about="">
        <dc:format>image/svg+xml</dc:format>
        <dc:type
           rdf:resource="http://purl.org/dc/dcmitype/StillImage" />
        <dc:title></dc:title>
      </cc:Work>
    </rdf:RDF>
  </metadata>
  <defs
     id="defs3143" />
  <sodipodi:namedview
     pagecolor="#ffffff"
     bordercolor="#666666"
     borderopacity="1"
     objecttolerance="10"
     gridtolerance="10"
     guidetolerance="10"
     inkscape:pageopacity="0"
     inkscape:pageshadow="2"
     inkscape:window-width="1920"
     inkscape:window-height="1056"
     id="namedview3141"
     showgrid="false"
     fit-margin-top="0"
     fit-margin-left="0"
     fit-margin-right="0"
     fit-margin-bottom="0"
     inkscape:zoom="0.89702958"
     inkscape:cx="15.497317"
     inkscape:cy="252.61163"
     inkscape:window-x="1920"
     inkscape:window-y="24"
     inkscape:window-maximized="1"
     inkscape:current-layer="svg3085" />
  <path
     d="m 223.64656,424.36278 45.84789,-33.06556 a 5.2806082,11.266371 39.04645 0 1 8.19695,1.34627 v 46.40029 a 5.2806082,11.266371 39.04645 0 1 -8.19695,13.16968 l -45.84789,33.06556 a 5.2806082,11.266371 39.04645 0 1 -8.19696,-1.34636 v -46.4003 a 5.2806082,11.266371 39.04645 0 1 8.19696,-13.16958"
     id="path3087"
     inkscape:connector-curvature="0"
     style="fill:#f41809" />
  <path
     d="m 226.0862,348.68689 44.07541,-31.78724 a 6.2411781,12.798368 36.201855 0 1 9.08319,2.24312 v 43.32836 a 6.2411781,12.798368 36.201855 0 1 -9.08319,15.34473 l -44.07541,31.78725 a 6.2411781,12.798368 36.201855 0 1 -9.08319,-2.24312 v -43.32836 a 6.2411781,12.798368 36.201855 0 1 9.08319,-15.34474"
     id="path3089"
     inkscape:connector-curvature="0"
     style="fill:#f41809" />
  <path
     d="m 222.3208,276.45612 51.60696,-37.21901 a 5.0713512,13.818387 7.1450287 0 1 5.31741,9.34404 v 34.5583 a 5.0713512,13.818387 7.1450287 0 1 -5.31741,17.01388 l -51.60696,37.21901 a 5.0713512,13.818387 7.1450287 0 1 -5.31741,-9.34404 v -34.55829 a 5.0713512,13.818387 7.1450287 0 1 5.31741,-17.01389"
     id="path3091"
     inkscape:connector-curvature="0"
     style="fill:#f41809" />
  <path
     d="m 296.39309,222.5935 46.26436,-33.09457 a 6.9103958,13.598436 22.571481 0 1 8.2439,5.50164 v 38.11862 a 6.9103958,13.598436 22.571481 0 1 -8.2439,17.29596 l -46.26436,33.09457 a 6.9103958,13.598436 22.571481 0 1 -8.2439,-5.50164 v -38.11862 a 6.9103958,13.598436 22.571481 0 1 8.2439,-17.29596"
     id="path3093"
     inkscape:connector-curvature="0"
     style="fill:#f41809" />
  <path
     d="m 294.62078,298.34763 49.80894,-35.63014 a 6.0503931,14.561785 9.985431 0 1 6.47164,8.98455 v 33.68834 a 6.0503931,14.561785 9.985431 0 1 -6.47164,18.24334 l -49.80894,35.63013 a 6.0503931,14.561785 9.985431 0 1 -6.47164,-8.98454 v -33.68834 a 6.0503931,14.561785 9.985431 0 1 6.47164,-18.24334"
     id="path3095"
     inkscape:connector-curvature="0"
     style="fill:#f41809" />
  <path
     d="m 295.72613,371.20734 44.4921,-31.82681 a 8.0659717,16.663588 17.059321 0 1 9.13005,8.19046 v 31.47316 a 8.0659717,16.663588 17.059321 0 1 -9.13005,21.25259 l -44.4921,31.82681 a 8.0659717,16.663588 17.059321 0 1 -9.13005,-8.19049 V 392.4599 a 8.0659717,16.663588 17.059321 0 1 9.13005,-21.25256"
     id="path3097"
     inkscape:connector-curvature="0"
     style="fill:#f41809" />
  <path
     d="m 365.95908,318.29624 46.26436,-33.09457 a 6.9184597,13.622277 22.459328 0 1 8.24391,5.53497 v 38.05197 a 6.9184597,13.622277 22.459328 0 1 -8.24391,17.3293 l -46.26436,33.09457 a 6.9184597,13.622277 22.459328 0 1 -8.2439,-5.53498 v -38.05197 a 6.9184597,13.622277 22.459328 0 1 8.2439,-17.32929"
     id="path3099"
     inkscape:connector-curvature="0"
     style="fill:#f41809" />
  <path
     d="m 366.08746,248.66994 48.03661,-34.36233 a 6.4674253,13.265493 17.632917 0 1 7.35777,6.39701 v 37.59565 a 6.4674253,13.265493 17.632917 0 1 -7.35777,16.92356 l -48.03661,34.36232 a 6.4674253,13.265493 17.632917 0 1 -7.35776,-6.39701 V 265.5935 a 6.4674253,13.265493 17.632917 0 1 7.35776,-16.92356"
     id="path3101"
     inkscape:connector-curvature="0"
     style="fill:#f41809" />
  <path
     d="m 366.08745,173.44854 48.0366,-34.36231 a 5.2294071,10.493632 34.674803 0 1 7.35775,2.19491 v 45.99985 a 5.2294071,10.493632 34.674803 0 1 -7.35775,12.72145 l -48.0366,34.36232 a 5.2294071,10.493632 34.674803 0 1 -7.35775,-2.19492 v -45.99985 a 5.2294071,10.493632 34.674803 0 1 7.35775,-12.72145"
     id="path3103"
     inkscape:connector-curvature="0"
     style="fill:#f41809" />
  <path
     d="m 149.61184,392.69875 46.47462,31.21491 a 14.389779,7.080018 73.930201 0 1 7.88364,18.21803 v 35.07032 a 14.389779,7.080018 73.930201 0 1 -7.88364,7.62787 l -46.47462,-31.2149 a 14.389779,7.080018 73.930201 0 1 -7.88364,-18.21804 v -35.07032 a 14.389779,7.080018 73.930201 0 1 7.88364,-7.62787"
     id="path3105"
     inkscape:connector-curvature="0"
     style="fill:#0000dd" />
  <path
     d="m 150.65772,317.25533 46.47462,31.21491 a 10.494928,5.0834273 48.982366 0 1 7.88364,12.06228 v 47.38182 a 10.494928,5.0834273 48.982366 0 1 -7.88364,1.47212 l -46.47462,-31.2149 a 10.494928,5.0834273 48.982366 0 1 -7.88364,-12.06229 v -47.38182 a 10.494928,5.0834273 48.982366 0 1 7.88364,-1.47212"
     id="path3107"
     inkscape:connector-curvature="0"
     style="fill:#0000dd" />
  <path
     d="m 150.65772,245.19641 46.47462,31.2149 a 11.435367,6.0626081 58.684499 0 1 7.88364,14.08901 v 43.32836 a 11.435367,6.0626081 58.684499 0 1 -7.88364,3.49884 l -46.47462,-31.2149 a 11.435367,6.0626081 58.684499 0 1 -7.88364,-14.08901 v -43.32836 a 11.435367,6.0626081 58.684499 0 1 7.88364,-3.49884"
     id="path3109"
     inkscape:connector-curvature="0"
     style="fill:#0000dd" />
  <path
     d="m 79.538371,345.54338 46.474619,31.21491 a 12.999517,6.7705744 68.657632 0 1 7.88364,16.45924 v 38.58788 a 12.999517,6.7705744 68.657632 0 1 -7.88364,5.86908 l -46.474619,-31.2149 a 12.999517,6.7705744 68.657632 0 1 -7.883639,-16.45925 v -38.58788 a 12.999517,6.7705744 68.657632 0 1 7.883639,-5.86908"
     id="path3111"
     inkscape:connector-curvature="0"
     style="fill:#0000dd" />
  <path
     d="m 79.538371,271.79221 46.474619,31.21491 a 13.616491,6.9291978 71.28986 0 1 7.88364,17.26308 v 36.98023 a 13.616491,6.9291978 71.28986 0 1 -7.88364,6.67291 l -46.474619,-31.2149 a 13.616491,6.9291978 71.28986 0 1 -7.883639,-17.26309 v -36.98023 a 13.616491,6.9291978 71.28986 0 1 7.883639,-6.67291"
     id="path3113"
     inkscape:connector-curvature="0"
     style="fill:#0000dd" />
  <path
     d="m 80.048825,200.74359 46.474625,31.21491 a 11.915676,6.3500578 62.394596 0 1 7.88364,14.89284 v 41.7207 a 11.915676,6.3500578 62.394596 0 1 -7.88364,4.30267 l -46.474625,-31.2149 a 11.915676,6.3500578 62.394596 0 1 -7.883639,-14.89284 v -41.7207 a 11.915676,6.3500578 62.394596 0 1 7.883639,-4.30268"
     id="path3115"
     inkscape:connector-curvature="0"
     style="fill:#0000dd" />
  <path
     d="m 7.8836339,297.73135 46.4746211,31.21491 a 11.109859,5.8063489 55.735715 0 1 7.883639,13.47756 v 44.55126 a 11.109859,5.8063489 55.735715 0 1 -7.883639,2.8874 L 7.8836339,358.64758 A 11.109859,5.8063489 55.735715 0 1 -4.9321338e-6,345.17001 V 300.61875 A 11.109859,5.8063489 55.735715 0 1 7.8836339,297.73135"
     id="path3117"
     inkscape:connector-curvature="0"
     style="fill:#0000dd" />
  <path
     d="m 8.9295047,227.01105 46.4746213,31.21491 a 10.942791,5.6475188 54.064629 0 1 7.883639,13.13405 v 45.23827 a 10.942791,5.6475188 54.064629 0 1 -7.883639,2.54389 L 8.9295047,287.92727 A 10.942791,5.6475188 54.064629 0 1 1.0458659,274.79321 v -45.23827 a 10.942791,5.6475188 54.064629 0 1 7.8836388,-2.54389"
     id="path3119"
     inkscape:connector-curvature="0"
     style="fill:#0000dd" />
  <path
     d="m 8.9295047,154.27017 46.4746213,31.21491 a 10.559855,5.1813974 49.777572 0 1 7.883639,12.23538 v 47.03562 a 10.559855,5.1813974 49.777572 0 1 -7.883639,1.64521 L 8.9295047,215.18639 A 10.559855,5.1813974 49.777572 0 1 1.0458659,202.951 v -47.03561 a 10.559855,5.1813974 49.777572 0 1 7.8836388,-1.64522"
     id="path3121"
     inkscape:connector-curvature="0"
     style="fill:#0000dd" />
  <path
     d="m 70.837262,98.769625 51.762068,32.915625 a 4.9580579,11.253903 60.900489 0 1 -4.37654,9.27253 l -40.828637,28.69758 a 4.9580579,11.253903 60.900489 0 1 -13.633247,3.38616 L 11.99884,140.12589 a 4.9580579,11.253903 60.900489 0 1 4.376536,-9.27253 l 40.828639,-28.69757 a 4.9580579,11.253903 60.900489 0 1 13.633247,-3.386165"
     id="path3123"
     inkscape:connector-curvature="0"
     style="fill:#ffe200" />
  <path
     d="m 141.23888,145.37336 51.76202,32.9156 a 4.9580579,11.253903 60.900489 0 1 -4.37653,9.27253 l -40.82864,28.69758 a 4.9580579,11.253903 60.900489 0 1 -13.63325,3.38616 l -51.762025,-32.9156 a 4.9580579,11.253903 60.900489 0 1 4.376535,-9.27253 l 40.82864,-28.69758 a 4.9580579,11.253903 60.900489 0 1 13.63325,-3.38616"
     id="path3125"
     inkscape:connector-curvature="0"
     style="fill:#ffe200" />
  <path
     d="m 213.52662,191.32143 51.76203,32.9156 a 4.9580579,11.253903 60.900489 0 1 -4.37654,9.27253 l -40.82864,28.69757 a 4.9580579,11.253903 60.900489 0 1 -13.63324,3.38616 l -51.76203,-32.9156 a 4.9580579,11.253903 60.900489 0 1 4.37654,-9.27253 l 40.82864,-28.69757 a 4.9580579,11.253903 60.900489 0 1 13.63324,-3.38616"
     id="path3127"
     inkscape:connector-curvature="0"
     style="fill:#ffe200" />
  <path
     d="m 142.1502,49.315308 51.76203,32.915603 a 4.9580579,11.253903 60.900489 0 1 -4.37654,9.272528 l -40.82864,28.697581 a 4.9580579,11.253903 60.900489 0 1 -13.63324,3.38616 L 83.311782,90.671574 a 4.9580579,11.253903 60.900489 0 1 4.376535,-9.272528 L 128.51696,52.70147 a 4.9580579,11.253903 60.900489 0 1 13.63324,-3.386162"
     id="path3129"
     inkscape:connector-curvature="0"
     style="fill:#ffe200" />
  <path
     d="m 213.4503,94.617502 51.76202,32.915598 a 4.9580579,11.253903 60.900489 0 1 -4.37653,9.27253 l -40.82864,28.69758 a 4.9580579,11.253903 60.900489 0 1 -13.63325,3.38616 l -51.76203,-32.9156 a 4.9580579,11.253903 60.900489 0 1 4.37654,-9.27253 l 40.82864,-28.697576 a 4.9580579,11.253903 60.900489 0 1 13.63325,-3.386162"
     id="path3131"
     inkscape:connector-curvature="0"
     style="fill:#ffe200" />
  <path
     d="m 287.26762,141.56582 51.76202,32.9156 a 4.9580579,11.253903 60.900489 0 1 -4.37653,9.27253 l -40.82864,28.69757 a 4.9580579,11.253903 60.900489 0 1 -13.63325,3.38617 l -51.76203,-32.91561 a 4.9580579,11.253903 60.900489 0 1 4.37654,-9.27252 l 40.82864,-28.69758 a 4.9580579,11.253903 60.900489 0 1 13.63325,-3.38616"
     id="path3133"
     inkscape:connector-curvature="0"
     style="fill:#ffe200" />
  <path
     d="M 211.38616,0.6508366 263.14819,33.56644 a 4.9580579,11.253903 60.900489 0 1 -4.37654,9.272528 l -40.82864,28.697576 a 4.9580579,11.253903 60.900489 0 1 -13.63324,3.386161 L 152.54774,42.007102 a 4.9580579,11.253903 60.900489 0 1 4.37654,-9.272528 L 197.75291,4.0369984 a 4.9580579,11.253903 60.900489 0 1 13.63325,-3.3861618"
     id="path3135"
     inkscape:connector-curvature="0"
     style="fill:#ffe200" />
  <path
     d="m 284.72178,45.895015 51.76202,32.915603 a 4.9580579,11.253903 60.900489 0 1 -4.37653,9.272528 l -40.82864,28.697574 a 4.9580579,11.253903 60.900489 0 1 -13.63325,3.38616 L 225.88336,87.251281 a 4.9580579,11.253903 60.900489 0 1 4.37653,-9.272528 l 40.82864,-28.697576 a 4.9580579,11.253903 60.900489 0 1 13.63325,-3.386162"
     id="path3137"
     inkscape:connector-curvature="0"
     style="fill:#ffe200" />
  <path
     d="m 356.55155,92.867628 51.76202,32.915602 a 4.9580579,11.253903 60.900489 0 1 -4.37653,9.27253 l -40.82864,28.69757 a 4.9580579,11.253903 60.900489 0 1 -13.63325,3.38617 l -51.76203,-32.91561 a 4.9580579,11.253903 60.900489 0 1 4.37654,-9.27252 L 342.9183,96.25379 a 4.9580579,11.253903 60.900489 0 1 13.63325,-3.386162"
     id="path3139"
     inkscape:connector-curvature="0"
     style="fill:#ffe200" />
</svg>
