<?xml version="1.0" encoding="UTF-8" standalone="no"?>
<svg viewBox="0 0 744.09447 1052.362179" xmlns="http://www.w3.org/2000/svg">
<path d="m447.17879,1003.4716h54.70717a9.78087,7.18405 0 0,1 9.78087,7.18405v45.92767a9.78087,7.18405 0 0,1 -9.78087,7.18405h-54.70717a9.78087,7.18405 0 0,1 -9.78087-7.18405v-45.92767a9.78087,7.18405 0 0,1 9.78087-7.18405" fill="#f41809" transform="matrix(.83806,-.60441,0,1.01029,-25.11667,-5.82258)"/>
<path d="m450.08985,930.30804h52.59219a10.83835,8.70436 0 0,1 10.83835,8.70436v42.88705a10.83835,8.70436 0 0,1 -10.83835,8.70436h-52.59219a10.83835,8.70436 0 0,1 -10.83835-8.70436v-42.88705a10.83835,8.70436 0 0,1 10.83835-8.70436" fill="#f41809" transform="matrix(.83806,-.60441,0,1.01029,-25.11667,-5.82258)"/>
<path d="m445.59685,856.125h61.57908a6.3449,13.04473 0 0,1 6.3449,13.04473v34.20631a6.3449,13.04473 0 0,1 -6.3449,13.04473h-61.57908a6.3449,13.04473 0 0,1 -6.3449-13.04473v-34.20631a6.3449,13.04473 0 0,1 6.3449-13.04473" fill="#f41809" transform="matrix(.83806,-.60441,0,1.01029,-25.11667,-5.82258)"/>
<path d="m532.43211,853.0899h55.04386a9.80833,11.2827 0 0,1 9.80833,11.2827v37.73037a9.80833,11.2827 0 0,1 -9.80833,11.2827h-55.04386a9.80833,11.2827 0 0,1 -9.80833-11.2827v-37.73037a9.80833,11.2827 0 0,1 9.80833-11.2827" fill="#f41809" transform="matrix(.8405,-.60124,0,1.01029,-25.11667,-5.82258)"/>
<path d="m530.32347,926.81757h59.26109a7.69975,13.47528 0 0,1 7.69975,13.47528v33.34522a7.69975,13.47528 0 0,1 -7.69975,13.47528h-59.26109a7.69975,13.47528 0 0,1 -7.69975-13.47528v-33.34522a7.69975,13.47528 0 0,1 7.69975-13.47528" fill="#f41809" transform="matrix(.8405,-.60124,0,1.01029,-25.11667,-5.82258)"/>
<path d="m531.63858,999.71783h52.93528a10.86264,14.57156 0 0,1 10.86264,14.57156v31.15265a10.86264,14.57156 0 0,1 -10.86264,14.57156h-52.93528a10.86264,14.57156 0 0,1 -10.86264-14.57156v-31.15265a10.86264,14.57156 0 0,1 10.86264-14.57156" fill="#f41809" transform="matrix(.8405,-.60124,0,1.01029,-25.11667,-5.82258)"/>
<path d="m615.1995,997.0741h55.04386a9.80833,11.31567 0 0,1 9.80833,11.31567v37.66444a9.80833,11.31567 0 0,1 -9.80833,11.31567h-55.04386a9.80833,11.31567 0 0,1 -9.80833-11.31567v-37.66444a9.80833,11.31567 0 0,1 9.80833-11.31567" fill="#f41809" transform="matrix(.8405,-.60124,0,1.01029,-25.11667,-5.82258)"/>
<path d="m615.35224,928.24786h57.15243a8.75403,11.54152 0 0,1 8.75403,11.54152v37.21273a8.75403,11.54152 0 0,1 -8.75403,11.54152h-57.15243a8.75403,11.54152 0 0,1 -8.75403-11.54152v-37.21273a8.75403,11.54152 0 0,1 8.75403-11.54152" fill="#f41809" transform="matrix(.8405,-.60124,0,1.01029,-25.11667,-5.82258)"/>
<path d="m615.35223,853.7926h57.15241a8.75402,7.38222 0 0,1 8.75402,7.38222v45.53133a8.75402,7.38222 0 0,1 -8.75402,7.38222h-57.15241a8.75402,7.38222 0 0,1 -8.75402-7.38222v-45.53133a8.75402,7.38222 0 0,1 8.75402-7.38222" fill="#f41809" transform="matrix(.8405,-.60124,0,1.01029,-25.11667,-5.82258)"/>
<path d="m350.21304,504.67548h54.12207a9.1809,12.79133 0 0,1 9.1809,12.79133v34.71312a9.1809,12.79133 0 0,1 -9.1809,12.79133h-54.12207a9.1809,12.79133 0 0,1 -9.1809-12.79133v-34.71312a9.1809,12.79133 0 0,1 9.1809-12.79133" fill="#00d" transform="matrix(.8587,.57675,0,1.01029,-25.11667,-5.82258)"/>
<path d="m351.43102,429.30515h54.12207a9.1809,6.69828 0 0,1 9.1809,6.69828v46.89922a9.1809,6.69828 0 0,1 -9.1809,6.69828h-54.12207a9.1809,6.69828 0 0,1 -9.1809-6.69828v-46.89922a9.1809,6.69828 0 0,1 9.1809-6.69828" fill="#00d" transform="matrix(.8587,.57675,0,1.01029,-25.11667,-5.82258)"/>
<path d="m351.43102,357.98016h54.12207a9.1809,8.70436 0 0,1 9.1809,8.70436v42.88705a9.1809,8.70436 0 0,1 -9.1809,8.70436h-54.12207a9.1809,8.70436 0 0,1 -9.1809-8.70436v-42.88705a9.1809,8.70436 0 0,1 9.1809-8.70436" fill="#00d" transform="matrix(.8587,.57675,0,1.01029,-25.11667,-5.82258)"/>
<path d="m268.60891,504.58621h54.12207a9.1809,11.05045 0 0,1 9.1809,11.05045v38.19486a9.1809,11.05045 0 0,1 -9.1809,11.05045h-54.12207a9.1809,11.05045 0 0,1 -9.1809-11.05045v-38.19486a9.1809,11.05045 0 0,1 9.1809-11.05045" fill="#00d" transform="matrix(.8587,.57675,0,1.01029,-25.11667,-5.82258)"/>
<path d="m268.60891,431.58621h54.12207a9.1809,11.8461 0 0,1 9.1809,11.8461v36.60358a9.1809,11.8461 0 0,1 -9.1809,11.8461h-54.12207a9.1809,11.8461 0 0,1 -9.1809-11.8461v-36.60358a9.1809,11.8461 0 0,1 9.1809-11.8461" fill="#00d" transform="matrix(.8587,.57675,0,1.01029,-25.11667,-5.82258)"/>
<path d="m269.20336,360.92188h54.12207a9.1809,9.5 0 0,1 9.1809,9.5v41.29577a9.1809,9.5 0 0,1 -9.1809,9.5h-54.12207a9.1809,9.5 0 0,1 -9.1809-9.5v-41.29577a9.1809,9.5 0 0,1 9.1809-9.5" fill="#00d" transform="matrix(.8587,.57675,0,1.01029,-25.11667,-5.82258)"/>
<path d="m185.16331,504.89822h54.12207a9.1809,8.09914 0 0,1 9.1809,8.09914v44.0975a9.1809,8.09914 0 0,1 -9.1809,8.09914h-54.12207a9.1809,8.09914 0 0,1 -9.1809-8.09914v-44.0975a9.1809,8.09914 0 0,1 9.1809-8.09914" fill="#00d" transform="matrix(.8587,.57675,0,1.01029,-25.11667,-5.82258)"/>
<path d="m186.38128,434.20291h54.12207a9.1809,7.75913 0 0,1 9.1809,7.75913v44.77751a9.1809,7.75913 0 0,1 -9.1809,7.75913h-54.12207a9.1809,7.75913 0 0,1 -9.1809-7.75913v-44.77751a9.1809,7.75913 0 0,1 9.1809-7.75913" fill="#00d" transform="matrix(.8587,.57675,0,1.01029,-25.11667,-5.82258)"/>
<path d="m186.38128,362.20291h54.12207a9.1809,6.86961 0 0,1 9.1809,6.86961v46.55655a9.1809,6.86961 0 0,1 -9.1809,6.86961h-54.12207a9.1809,6.86961 0 0,1 -9.1809-6.86961v-46.55655a9.1809,6.86961 0 0,1 9.1809-6.86961" fill="#00d" transform="matrix(.8587,.57675,0,1.01029,-25.11667,-5.82258)"/>
<path d="m255.53899,391.1853h50.48874a4.5145,9.22793 0 0,1 4.5145,9.22793v41.83991a4.5145,9.22793 0 0,1 -4.5145,9.22793h-50.48874a4.5145,9.22793 0 0,1 -4.5145-9.22793v-41.83991a4.5145,9.22793 0 0,1 4.5145-9.22793" fill="#ffe200" transform="matrix(1.02522,.65194,-.97583,.68589,316.58336,-22.80392)"/>
<path d="m325.54581,392.59003h50.4887a4.5145,9.22793 0 0,1 4.5145,9.22793v41.83991a4.5145,9.22793 0 0,1 -4.5145,9.22793h-50.4887a4.5145,9.22793 0 0,1 -4.5145-9.22793v-41.83991a4.5145,9.22793 0 0,1 4.5145-9.22793" fill="#ffe200" transform="matrix(1.02522,.65194,-.97583,.68589,316.58336,-22.80392)"/>
<path d="m396.04081,392.5748h50.4887a4.5145,9.22793 0 0,1 4.5145,9.22793v41.83991a4.5145,9.22793 0 0,1 -4.5145,9.22793h-50.4887a4.5145,9.22793 0 0,1 -4.5145-9.22793v-41.83991a4.5145,9.22793 0 0,1 4.5145-9.22793" fill="#ffe200" transform="matrix(1.02522,.65194,-.97583,.68589,316.58336,-22.80392)"/>
<path d="m256.02715,318.6189h50.4887a4.5145,9.22793 0 0,1 4.5145,9.22793v41.83991a4.5145,9.22793 0 0,1 -4.5145,9.22793h-50.4887a4.5145,9.22793 0 0,1 -4.5145-9.22793v-41.83991a4.5145,9.22793 0 0,1 4.5145-9.22793" fill="#ffe200" transform="matrix(1.02522,.65194,-.97583,.68589,316.58336,-22.80392)"/>
<path d="m325.54581,318.59003h50.4887a4.5145,9.22793 0 0,1 4.5145,9.22793v41.83991a4.5145,9.22793 0 0,1 -4.5145,9.22793h-50.4887a4.5145,9.22793 0 0,1 -4.5145-9.22793v-41.83991a4.5145,9.22793 0 0,1 4.5145-9.22793" fill="#ffe200" transform="matrix(1.02522,.65194,-.97583,.68589,316.58336,-22.80392)"/>
<path d="m397.55286,318.59592h50.4887a4.5145,9.22793 0 0,1 4.5145,9.22793v41.83991a4.5145,9.22793 0 0,1 -4.5145,9.22793h-50.4887a4.5145,9.22793 0 0,1 -4.5145-9.22793v-41.83991a4.5145,9.22793 0 0,1 4.5145-9.22793" fill="#ffe200" transform="matrix(1.02522,.65194,-.97583,.68589,316.58336,-22.80392)"/>
<path d="m256.02715,247.66806h50.4887a4.5145,9.22793 0 0,1 4.5145,9.22793v41.83991a4.5145,9.22793 0 0,1 -4.5145,9.22793h-50.4887a4.5145,9.22793 0 0,1 -4.5145-9.22793v-41.83991a4.5145,9.22793 0 0,1 4.5145-9.22793" fill="#ffe200" transform="matrix(1.02522,.65194,-.97583,.68589,316.58336,-22.80392)"/>
<path d="m326.54593,246.60399h50.4887a4.5145,9.22793 0 0,1 4.5145,9.22793v41.83991a4.5145,9.22793 0 0,1 -4.5145,9.22793h-50.4887a4.5145,9.22793 0 0,1 -4.5145-9.22793v-41.83991a4.5145,9.22793 0 0,1 4.5145-9.22793" fill="#ffe200" transform="matrix(1.02522,.65194,-.97583,.68589,316.58336,-22.80392)"/>
<path d="m397.55286,247.59592h50.4887a4.5145,9.22793 0 0,1 4.5145,9.22793v41.83991a4.5145,9.22793 0 0,1 -4.5145,9.22793h-50.4887a4.5145,9.22793 0 0,1 -4.5145-9.22793v-41.83991a4.5145,9.22793 0 0,1 4.5145-9.22793" fill="#ffe200" transform="matrix(1.02522,.65194,-.97583,.68589,316.58336,-22.80392)"/>
</svg>
